<svg xmlns="http://www.w3.org/2000/svg" xmlns:xlink="http://www.w3.org/1999/xlink" width="112" height="99" viewBox="0 0 112 99">
  <defs>
    <clipPath id="clip-path">
      <rect id="Rectangle_37" data-name="Rectangle 37" width="112" height="99" transform="translate(0.256 -0.087)" fill="none"/>
    </clipPath>
  </defs>
  <g id="Group_38" data-name="Group 38" transform="translate(-0.256 0.087)">
    <g id="Group_37" data-name="Group 37" transform="translate(0 0)" clip-path="url(#clip-path)">
      <path id="Path_27" data-name="Path 27" d="M265.775,211.549h1.774a1.774,1.774,0,1,0,0-3.549h-1.774a1.774,1.774,0,1,0,0,3.549" transform="translate(-205.757 -162.085)"/>
      <path id="Path_28" data-name="Path 28" d="M299.55,208h-1.774a1.774,1.774,0,1,0,0,3.549h1.774a1.774,1.774,0,0,0,0-3.549" transform="translate(-230.659 -162.085)"/>
      <path id="Path_29" data-name="Path 29" d="M331.55,208h-1.774a1.774,1.774,0,1,0,0,3.549h1.774a1.774,1.774,0,1,0,0-3.549" transform="translate(-255.562 -162.085)"/>
      <path id="Path_30" data-name="Path 30" d="M299.713,80.163a10.637,10.637,0,0,0-2.147-.172,1.774,1.774,0,1,0,.005,3.549h.005a13.106,13.106,0,0,1,1.565.127,1.775,1.775,0,1,0,.572-3.5" transform="translate(-230.498 -62.465)"/>
      <path id="Path_31" data-name="Path 31" d="M267.4,90.623a1.764,1.764,0,0,0,1.123-.4,8.73,8.73,0,0,1,1.308-.886,1.775,1.775,0,0,0-1.712-3.111l-.01.006a12.534,12.534,0,0,0-1.835,1.246,1.774,1.774,0,0,0,1.126,3.147Z" transform="translate(-207.022 -67.146)"/>
      <path id="Path_32" data-name="Path 32" d="M113.485,29.288l-1.916-11.5A21.224,21.224,0,0,0,90.566,0H22.992a21.226,21.226,0,0,0-21,17.792L.074,29.288a5.324,5.324,0,0,0,5.251,6.2H7.1v1.774a5.329,5.329,0,0,0,5.323,5.323h7.424a5.315,5.315,0,0,0,5,3.549h9.2a5.315,5.315,0,0,0,5,3.549H53.23a5.329,5.329,0,0,0,5.323-5.323V30.163a12.413,12.413,0,0,0-21.221-8.754,11.436,11.436,0,0,0-13.716.838A9.752,9.752,0,0,0,7.1,29.276v2.661H5.324A1.774,1.774,0,0,1,3.55,30.163a1.75,1.75,0,0,1,.025-.293l1.916-11.5a17.687,17.687,0,0,1,17.5-14.825H90.566a17.686,17.686,0,0,1,17.5,14.825l1.916,11.5a1.774,1.774,0,0,1-1.752,2.066H106.46V29.276a9.752,9.752,0,0,0-16.519-7.028,11.436,11.436,0,0,0-13.717-.838,12.535,12.535,0,0,0-1.541-1.326,1.775,1.775,0,1,0-2.076,2.88,8.882,8.882,0,0,1,1.9,1.869c.015.021.018.046.033.067A8.65,8.65,0,0,1,76.3,30.163v12.42a1.774,1.774,0,0,0,1.774,1.774H88.717a5.314,5.314,0,0,0,5-3.549h7.424a5.329,5.329,0,0,0,5.323-5.323h1.773a5.321,5.321,0,0,0,5.252-6.2m-76.223.875a8.872,8.872,0,1,1,17.743,0V44.358a1.776,1.776,0,0,1-1.774,1.774H39.036a1.776,1.776,0,0,1-1.774-1.774Zm-14.195.887a7.994,7.994,0,0,1,7.984-7.984,7.913,7.913,0,0,1,4.166,1.177,12.348,12.348,0,0,0-1.5,5.92v12.42H24.841a1.776,1.776,0,0,1-1.774-1.774Zm-12.42-1.774a6.181,6.181,0,0,1,10.631-4.319,11.449,11.449,0,0,0-1.759,6.093v7.984h-7.1a1.776,1.776,0,0,1-1.774-1.774Zm79.845,9.759a1.776,1.776,0,0,1-1.774,1.774H79.845V30.163a12.191,12.191,0,0,0-1.508-5.921A7.982,7.982,0,0,1,90.491,31.05Zm12.42-3.549a1.776,1.776,0,0,1-1.774,1.774h-7.1V31.05a11.448,11.448,0,0,0-1.759-6.093,6.181,6.181,0,0,1,10.631,4.319Z" transform="translate(-0.309 -0.217)"/>
      <path id="Path_33" data-name="Path 33" d="M206.2,240A14.211,14.211,0,0,0,192,254.195v14.195a5.329,5.329,0,0,0,5.323,5.323h.858l-4.263,9.948a1.774,1.774,0,0,0,.931,2.329,1.747,1.747,0,0,0,.7.144,1.771,1.771,0,0,0,1.631-1.076l5.323-12.42v0a1.763,1.763,0,0,0,.143-.7V254.716a5.316,5.316,0,0,1,3.549,5.02v11.839l-5.179,12.085a1.774,1.774,0,0,0,.931,2.329,1.747,1.747,0,0,0,.7.144,1.771,1.771,0,0,0,1.631-1.076l4.861-11.344h3.238l-4.263,9.948a1.773,1.773,0,0,0,.931,2.328h0a1.743,1.743,0,0,0,.7.144,1.771,1.771,0,0,0,1.63-1.076l4.931-11.5a5.322,5.322,0,0,0,4.085-5.163V254.195A14.211,14.211,0,0,0,206.2,240m10.646,28.389a1.776,1.776,0,0,1-1.774,1.774h-5.323V259.736a8.857,8.857,0,0,0-6.72-8.605,3.161,3.161,0,0,0-3.925,3.064v15.969h-1.774a1.776,1.776,0,0,1-1.774-1.774V254.195a10.646,10.646,0,0,1,21.292,0Z" transform="translate(-149.726 -186.987)"/>
    </g>
  </g>
</svg>
