<svg id="implante-dental" xmlns="http://www.w3.org/2000/svg" width="84.096" height="96.554" viewBox="0 0 84.096 96.554">
  <path id="Path_39" data-name="Path 39" d="M158,39.787a17.251,17.251,0,0,0,10.277-3.423,6.27,6.27,0,0,1,3.733-1.249l0-3.115a9.408,9.408,0,0,0-5.6,1.871,14.023,14.023,0,0,1-16.825,0,9.394,9.394,0,0,0-5.6-1.866l0,3.115a6.264,6.264,0,0,1,3.734,1.244A17.283,17.283,0,0,0,158,39.787Zm0,0" transform="translate(-115.955 -25.771)"/>
  <path id="Path_40" data-name="Path 40" d="M73.674,36.476l.419.9h9.715l-1.557,6.229H87.36v6.229H99.819V43.605h5.109l-1.557-6.229h9.715l.419-.9a46.394,46.394,0,0,1,6.155-9.814,15.609,15.609,0,0,0,3.519-9.861V15.572A15.571,15.571,0,0,0,107.608,0h-.018a15.677,15.677,0,0,0-9.327,3.115,8,8,0,0,1-9.352,0A15.67,15.67,0,0,0,79.584,0h-.012A15.573,15.573,0,0,0,64,15.572V16.8a15.622,15.622,0,0,0,3.519,9.861A46.333,46.333,0,0,1,73.674,36.476ZM96.7,46.72H90.475V43.605H96.7Zm4.235-6.229H86.24l.779-3.115H100.16ZM67.115,15.572A12.458,12.458,0,0,1,79.572,3.115h.009A12.513,12.513,0,0,1,87.047,5.61,11.2,11.2,0,0,0,100.135,5.6a12.539,12.539,0,0,1,7.458-2.489h.015a12.455,12.455,0,0,1,12.456,12.457V16.8a12.483,12.483,0,0,1-2.816,7.888,49.425,49.425,0,0,0-6.139,9.571H76.069a49.436,49.436,0,0,0-6.139-9.573A12.476,12.476,0,0,1,67.115,16.8Zm0,0" transform="translate(-51.541)"/>
  <path id="Path_41" data-name="Path 41" d="M83.933,310.238a40.75,40.75,0,0,0-35.655-22.629v-6.265a3.118,3.118,0,0,0,3.115-3.115v-3.115A3.118,3.118,0,0,0,48.277,272H35.819a3.118,3.118,0,0,0-3.115,3.115v3.115a3.118,3.118,0,0,0,3.115,3.115v6.265A40.751,40.751,0,0,0,.163,310.238L0,310.566v5.039H84.1v-5.039Zm-45-22.664h6.229v3.115H38.933Zm6.229,9.344H38.933V293.8h6.229Zm-.2,3.115a16.9,16.9,0,0,1-2.217,6.229h-1.4a16.9,16.9,0,0,1-2.217-6.229Zm-9.148-24.917H48.277l0,3.115H35.819Zm9.344,6.229v3.115H38.933v-3.115Zm35.819,31.147H3.115V311.3a37.653,37.653,0,0,1,32.7-20.581v6.809a20.041,20.041,0,0,0,3.376,11.151l.462.694h4.781l.462-.693a20.043,20.043,0,0,0,3.376-11.151v-6.809a37.647,37.647,0,0,1,32.7,20.581Zm0,0" transform="translate(0 -219.051)"/>
  <path id="Path_42" data-name="Path 42" d="M337.281,200v23.73l-5.033-6.041-2.392,2,8.983,10.778,8.983-10.778-2.392-2L340.4,223.73V200Zm0,0" transform="translate(-265.644 -161.067)"/>
  <path id="Path_43" data-name="Path 43" d="M27.821,219.686l-2.392-2L20.4,223.73V200H17.281v23.73l-5.033-6.041-2.392,2,8.983,10.778Zm0,0" transform="translate(-7.937 -161.067)"/>
</svg>
