<svg xmlns="http://www.w3.org/2000/svg" width="123.407" height="123.406" viewBox="0 0 123.407 123.406">
  <g id="cuidado-dental" transform="translate(0)">
    <g id="Group_68" data-name="Group 68" transform="translate(0 0)">
      <g id="Group_67" data-name="Group 67" transform="translate(0 0)">
        <path id="Path_66" data-name="Path 66" d="M46.541,56.768,40.13,59.335a4.268,4.268,0,0,1-5.4-5.858l1.413-2.826a4.113,4.113,0,0,0-.771-4.749l-9.838-9.838,2.659-2.659a2.057,2.057,0,0,0,0-2.908l-6.773-6.773.6-.6a2.057,2.057,0,0,0,.041-2.867L3.552.647A2.057,2.057,0,0,0,0,2.058V28.8a2.056,2.056,0,0,0,.73,1.571L6.9,35.584a2.057,2.057,0,0,0,2.781-.117l.6-.609,6.773,6.773a2.057,2.057,0,0,0,2.908,0l2.659-2.659,9.838,9.838-1.4,2.818A8.375,8.375,0,0,0,41.664,63.144l6.415-2.565ZM8.83,30.5l-.72.72-4-3.379V7.233L17.7,21.63l-.644.644Zm9.681,6.767-5.319-5.319,5.319-5.319,5.319,5.325Z" transform="translate(0 -0.003)"/>
      </g>
    </g>
    <g id="Group_70" data-name="Group 70" transform="translate(57.59 59.645)">
      <g id="Group_69" data-name="Group 69">
        <path id="Path_67" data-name="Path 67" d="M288.548,232.152a2.057,2.057,0,0,0-2.242.446l-28.795,28.795a2.057,2.057,0,0,0,0,2.908l1.631,1.631L251.071,274a19.869,19.869,0,0,0-10.617-2.929c-9.072,0-16.454,5.535-16.454,12.341s7.382,12.341,16.454,12.341,16.454-5.535,16.454-12.341a10.213,10.213,0,0,0-2.69-6.742l7.832-7.832,1.631,1.631a2.057,2.057,0,0,0,2.908,0l22.625-22.625a2.057,2.057,0,0,0,.6-1.454V234.053A2.057,2.057,0,0,0,288.548,232.152Zm-48.094,59.49c-6.689,0-12.341-3.768-12.341-8.227s5.652-8.227,12.341-8.227,12.341,3.768,12.341,8.227S247.143,291.643,240.454,291.643Zm45.249-46.1L265.136,266.11l-3.262-3.262,23.83-23.83Z" transform="translate(-224 -231.996)"/>
      </g>
    </g>
    <g id="Group_72" data-name="Group 72" transform="translate(17.954 46.842)">
      <g id="Group_71" data-name="Group 71">
        <path id="Path_68" data-name="Path 68" d="M122.794,204.861a9.34,9.34,0,0,0-18.425,0l-6.214,37.281a5.119,5.119,0,0,1-10.121-.148L82.712,202.95a2.058,2.058,0,0,0-.294-.823L81.274,200.3a57.933,57.933,0,0,1-7.425-18.1l-4.017.9a62.062,62.062,0,0,0,7.962,19.393l.909,1.456,5.265,38.606a9.231,9.231,0,0,0,18.252.271l6.214-37.281a5.223,5.223,0,0,1,10.3,0l4.128,24.766,4.056-.679Z" transform="translate(-69.832 -182.197)"/>
      </g>
    </g>
    <g id="Group_74" data-name="Group 74" transform="translate(23.155 8.224)">
      <g id="Group_73" data-name="Group 73">
        <path id="Path_69" data-name="Path 69" d="M147.913,31.994a25.949,25.949,0,0,0-10.22,2.1,23.163,23.163,0,0,1-18.161,0,25.948,25.948,0,0,0-29.468,6.446l3.052,2.768a21.822,21.822,0,0,1,24.795-5.434,27.271,27.271,0,0,0,21.4,0,21.835,21.835,0,0,1,30.434,20.07,58,58,0,0,1-8.828,30.778l-1.144,1.831a2.058,2.058,0,0,0-.294.823L157.8,103.713l4.074.555,1.625-11.9.909-1.456a62.114,62.114,0,0,0,9.453-32.968A25.948,25.948,0,0,0,147.913,31.994Z" transform="translate(-90.064 -31.992)"/>
      </g>
    </g>
  </g>
</svg>
