<svg xmlns="http://www.w3.org/2000/svg" width="176.972" height="163.221" viewBox="0 0 176.972 163.221">
  <g id="Group_225" data-name="Group 225" transform="translate(-878.39 -3977)">
    <path id="Path_22" data-name="Path 22" d="M38.255,64.714h-12.6A56.118,56.118,0,0,1,134.251,49.393a6.376,6.376,0,0,0,11.96-4.424A68.865,68.865,0,0,0,12.76,68.14,25.512,25.512,0,0,0,0,90.217V111.9a25.532,25.532,0,0,0,25.5,25.5H38.255a6.376,6.376,0,0,0,6.376-6.376V71.09a6.376,6.376,0,0,0-6.376-6.376m-6.376,59.932H25.5A12.766,12.766,0,0,1,12.752,111.9V90.217A12.766,12.766,0,0,1,25.5,77.466h6.376Z" transform="translate(878.39 3977)"/>
    <path id="Path_23" data-name="Path 23" d="M284.859,203H272.107a6.376,6.376,0,0,0-6.376,6.376V276a6.383,6.383,0,0,1-6.376,6.376H239.909v.2a12.752,12.752,0,1,0,0,12.347v.2h19.446A19.149,19.149,0,0,0,278.483,276v-.319h6.376a25.532,25.532,0,0,0,25.5-25.5V228.5a25.532,25.532,0,0,0-25.5-25.5m12.752,47.181a12.766,12.766,0,0,1-12.752,12.751h-6.376V215.752h6.376A12.766,12.766,0,0,1,297.61,228.5Z" transform="translate(745 3838.715)"/>
  </g>
</svg>
