<svg xmlns="http://www.w3.org/2000/svg" xmlns:xlink="http://www.w3.org/1999/xlink" width="511.169" height="49.937" viewBox="0 0 511.169 49.937">
  <defs>
    <clipPath id="clip-path">
      <rect id="Rectangle_13" data-name="Rectangle 13" width="511.169" height="49.937" fill="#222a31"/>
    </clipPath>
  </defs>
  <g id="Group_16" data-name="Group 16" clip-path="url(#clip-path)">
    <path id="Path_5" data-name="Path 5" d="M2.728,34.362A19.086,19.086,0,0,1,0,26.909V.667H3.537V16.125A14.965,14.965,0,0,1,8.563,12.02a13.737,13.737,0,0,1,6.087-1.351,13.517,13.517,0,0,1,10.028,4.268,14.279,14.279,0,0,1,4.168,10.356,14.028,14.028,0,0,1-4.193,10.23,13.691,13.691,0,0,1-10.1,4.242,15.662,15.662,0,0,1-6.353-1.3,15.955,15.955,0,0,1-5.469-4.105m11.519,1.995a10.693,10.693,0,0,0,5.519-1.477,10.9,10.9,0,0,0,4-4.105,11.176,11.176,0,0,0,1.491-5.608,11.361,11.361,0,0,0-1.5-5.62,10.816,10.816,0,0,0-4.042-4.168A10.593,10.593,0,0,0,14.3,13.9a11.163,11.163,0,0,0-5.556,1.478A10.289,10.289,0,0,0,4.7,19.4a11.436,11.436,0,0,0-1.415,5.67,11.027,11.027,0,0,0,3.182,8.058,10.5,10.5,0,0,0,7.78,3.233" transform="translate(0 0.016)" fill="#222a31"/>
    <path id="Path_6" data-name="Path 6" d="M31.735,11.125H35.5l9.522,21.344,9.244-21.344h3.815L41.535,48.937H37.772l5.33-12.2Z" transform="translate(0.761 0.267)" fill="#222a31"/>
    <path id="Path_7" data-name="Path 7" d="M73.375,39.654,78.7,2.2h.606l15.23,30.714L109.6,2.2h.606l5.406,37.459h-3.713l-3.663-26.8L95,39.654h-.959L80.625,12.678,76.987,39.654Z" transform="translate(1.759 0.053)" fill="#222a31"/>
    <path id="Path_8" data-name="Path 8" d="M133.84,10.435a13.751,13.751,0,0,1,10.608,4.621,14.29,14.29,0,0,1,3.89,10.028q.051,14.347,0,14.575h-3.763v-6.29q-2.955,5.506-10.735,6.163A13.544,13.544,0,0,1,123.446,35.2a14.378,14.378,0,0,1-4.029-10.116,14.47,14.47,0,0,1,3.814-10,13.716,13.716,0,0,1,10.608-4.647m0,3.485a10.22,10.22,0,0,0-7.6,3.284,10.982,10.982,0,0,0-3.183,7.932,11.286,11.286,0,0,0,1.629,5.784,12.58,12.58,0,0,0,5.519,4.7q9.75,2.173,13.867-8.866a18.837,18.837,0,0,0-.758-6.768,11.063,11.063,0,0,0-1.945-2.779,9.981,9.981,0,0,0-7.527-3.284" transform="translate(2.862 0.25)" fill="#222a31"/>
    <path id="Path_9" data-name="Path 9" d="M152.583,26.812V23.478a14.941,14.941,0,0,1,1.162-4.067,13.581,13.581,0,0,1,4.748-6.364,9.549,9.549,0,0,1,4.951-2.021,6.325,6.325,0,0,1,3.132.96l-1.844,2.98q-2.348-.859-4.66,1.39a12.249,12.249,0,0,0-3.195,4.9,38.628,38.628,0,0,0-.657,8.815v9.371h-3.637Z" transform="translate(3.657 0.265)" fill="#222a31"/>
    <path id="Path_10" data-name="Path 10" d="M194.7,16.9l-2.829,1.768a11.814,11.814,0,0,0-10-4.9,11.588,11.588,0,0,0-8.424,3.258,10.654,10.654,0,0,0-3.346,7.932,11.319,11.319,0,0,0,1.541,5.721,10.686,10.686,0,0,0,4.218,4.155,12.851,12.851,0,0,0,16.014-3.385l2.829,1.844a13.3,13.3,0,0,1-5.342,4.61,17.254,17.254,0,0,1-7.641,1.629,15.061,15.061,0,0,1-10.875-4.168,13.531,13.531,0,0,1-4.331-10.128,14.486,14.486,0,0,1,2.034-7.49,14.336,14.336,0,0,1,5.556-5.38,16.2,16.2,0,0,1,7.919-1.931,17,17,0,0,1,5.292.832,14.778,14.778,0,0,1,4.357,2.185A11.709,11.709,0,0,1,194.7,16.9" transform="translate(3.991 0.25)" fill="#222a31"/>
    <path id="Path_11" data-name="Path 11" d="M223.537,29.656l2.981,1.591a15.533,15.533,0,0,1-3.385,4.673,13.633,13.633,0,0,1-4.369,2.689,15.319,15.319,0,0,1-5.481.923q-6.769,0-10.584-4.433a15.159,15.159,0,0,1-.581-19.41A13.207,13.207,0,0,1,213.1,10.435a13.657,13.657,0,0,1,11.291,5.38,14.839,14.839,0,0,1,3.031,9.446h-24.88a11.335,11.335,0,0,0,3.082,7.944,9.8,9.8,0,0,0,7.35,3.094,11.678,11.678,0,0,0,4.117-.745,11.006,11.006,0,0,0,3.4-1.958,16.609,16.609,0,0,0,3.043-3.94m0-7.451a11.746,11.746,0,0,0-2.07-4.559,9.88,9.88,0,0,0-3.612-2.753,11.053,11.053,0,0,0-4.724-1.048,10.122,10.122,0,0,0-7,2.626,11.951,11.951,0,0,0-3.207,5.733Z" transform="translate(4.767 0.25)" fill="#222a31"/>
    <rect id="Rectangle_12" data-name="Rectangle 12" width="3.587" height="38.418" transform="translate(237.764 1.339)" fill="#222a31"/>
    <path id="Path_12" data-name="Path 12" d="M255.515,10.435a13.751,13.751,0,0,1,10.608,4.621,14.29,14.29,0,0,1,3.89,10.028q.051,14.347,0,14.575H266.25v-6.29q-2.955,5.506-10.735,6.163A13.544,13.544,0,0,1,245.121,35.2a14.378,14.378,0,0,1-4.029-10.116,14.469,14.469,0,0,1,3.814-10,13.715,13.715,0,0,1,10.608-4.647m0,3.485a10.22,10.22,0,0,0-7.6,3.284,10.983,10.983,0,0,0-3.182,7.932,11.286,11.286,0,0,0,1.629,5.784,12.58,12.58,0,0,0,5.519,4.7q9.75,2.173,13.867-8.866a18.841,18.841,0,0,0-.758-6.768,11.065,11.065,0,0,0-1.945-2.779,9.981,9.981,0,0,0-7.527-3.284" transform="translate(5.778 0.25)" fill="#222a31"/>
    <path id="Path_13" data-name="Path 13" d="M285.519,2.294h4.066l12.4,28.947,12.63-28.947h4.092L302.392,39.753h-.809Z" transform="translate(6.843 0.055)" fill="#222a31"/>
    <path id="Path_14" data-name="Path 14" d="M341.659,29.656l2.981,1.591a15.529,15.529,0,0,1-3.385,4.673,13.633,13.633,0,0,1-4.369,2.689,15.32,15.32,0,0,1-5.482.923q-6.769,0-10.584-4.433a15.158,15.158,0,0,1-.581-19.41,13.207,13.207,0,0,1,10.987-5.254,13.657,13.657,0,0,1,11.291,5.38,14.84,14.84,0,0,1,3.031,9.446h-24.88a11.336,11.336,0,0,0,3.082,7.944A9.8,9.8,0,0,0,331.1,36.3a11.679,11.679,0,0,0,4.117-.745,11.009,11.009,0,0,0,3.4-1.958,16.609,16.609,0,0,0,3.043-3.94m0-7.451a11.744,11.744,0,0,0-2.07-4.559,9.883,9.883,0,0,0-3.612-2.753,11.055,11.055,0,0,0-4.724-1.048,10.122,10.122,0,0,0-7,2.626,11.949,11.949,0,0,0-3.207,5.733Z" transform="translate(7.598 0.25)" fill="#222a31"/>
    <path id="Path_15" data-name="Path 15" d="M350.915,11.392h3.611V35.135q-.859,11.113-4.724,14.8-1.541-2.3-2.145-3.132,2.98-4.7,3.258-12.731ZM352.659,0a2.805,2.805,0,0,1,2.083.859,2.836,2.836,0,0,1,.846,2.07,2.881,2.881,0,0,1-.846,2.084,2.913,2.913,0,0,1-4.155,0,2.868,2.868,0,0,1-.858-2.084,2.823,2.823,0,0,1,.858-2.07A2.82,2.82,0,0,1,352.659,0" transform="translate(8.332 0)" fill="#222a31"/>
    <path id="Path_16" data-name="Path 16" d="M373.81,10.435a13.751,13.751,0,0,1,10.608,4.621,14.29,14.29,0,0,1,3.89,10.028q.051,14.347,0,14.575h-3.763v-6.29q-2.955,5.506-10.735,6.163A13.544,13.544,0,0,1,363.416,35.2a14.378,14.378,0,0,1-4.029-10.116,14.471,14.471,0,0,1,3.814-10,13.716,13.716,0,0,1,10.608-4.647m0,3.485a10.22,10.22,0,0,0-7.6,3.284,10.983,10.983,0,0,0-3.182,7.932,11.287,11.287,0,0,0,1.629,5.784,12.58,12.58,0,0,0,5.519,4.7q9.75,2.173,13.867-8.866a18.841,18.841,0,0,0-.758-6.768,11.065,11.065,0,0,0-1.944-2.779,9.98,9.98,0,0,0-7.527-3.284" transform="translate(8.613 0.25)" fill="#222a31"/>
    <path id="Path_17" data-name="Path 17" d="M392.553,26.812V23.478a14.949,14.949,0,0,1,1.162-4.067,13.58,13.58,0,0,1,4.748-6.364,9.547,9.547,0,0,1,4.951-2.021,6.324,6.324,0,0,1,3.132.96l-1.844,2.98q-2.348-.859-4.66,1.39a12.251,12.251,0,0,0-3.195,4.9,38.635,38.635,0,0,0-.657,8.815v9.371h-3.637Z" transform="translate(9.408 0.265)" fill="#222a31"/>
    <path id="Path_18" data-name="Path 18" d="M421.789,10.435A13.752,13.752,0,0,1,432.4,15.056a14.291,14.291,0,0,1,3.89,10.028q.051,14.347,0,14.575h-3.763v-6.29q-2.955,5.506-10.735,6.163A13.543,13.543,0,0,1,411.4,35.2a14.377,14.377,0,0,1-4.029-10.116,14.47,14.47,0,0,1,3.814-10,13.715,13.715,0,0,1,10.608-4.647m0,3.485a10.22,10.22,0,0,0-7.6,3.284A10.983,10.983,0,0,0,411,25.135a11.288,11.288,0,0,0,1.629,5.784,12.582,12.582,0,0,0,5.519,4.7q9.75,2.173,13.867-8.866a18.846,18.846,0,0,0-.758-6.768,11.067,11.067,0,0,0-1.945-2.779,9.98,9.98,0,0,0-7.527-3.284" transform="translate(9.763 0.25)" fill="#222a31"/>
    <path id="Path_19" data-name="Path 19" d="M441.842,28.984l-.05-2.955a18.679,18.679,0,0,1,.177-3.687q.555-4.775,2.424-7a15.614,15.614,0,0,1,3.714-3.006,17.207,17.207,0,0,1,7.148-1.263,11.173,11.173,0,0,1,5.8,1.579,8.939,8.939,0,0,1,3.8,4.243q1.137,2.665,1.137,8.348V39.492h-3.537V26.281a32.273,32.273,0,0,0-.4-6.414,5.841,5.841,0,0,0-2.5-3.9,10.714,10.714,0,0,0-5.531-1.149,9.436,9.436,0,0,0-5.759,1.869,5.589,5.589,0,0,0-2.349,5.1,39.166,39.166,0,0,0-.48,7.553V39.492h-3.587Z" transform="translate(10.588 0.266)" fill="#222a31"/>
    <path id="Path_20" data-name="Path 20" d="M485.456,10.435a13.751,13.751,0,0,1,10.608,4.621,14.511,14.511,0,0,1,3.814,10.028A14.357,14.357,0,0,1,495.838,35.2a14.619,14.619,0,0,1-20.775,0,14.377,14.377,0,0,1-4.029-10.116,14.469,14.469,0,0,1,3.814-10,13.715,13.715,0,0,1,10.608-4.647m0,3.485a10.221,10.221,0,0,0-7.6,3.284,10.983,10.983,0,0,0-3.182,7.932,11.373,11.373,0,0,0,1.453,5.62,10.176,10.176,0,0,0,3.927,4.016,11.2,11.2,0,0,0,10.849,0,10.125,10.125,0,0,0,3.9-4.016,11.47,11.47,0,0,0,1.439-5.62,10.982,10.982,0,0,0-3.182-7.932,10.22,10.22,0,0,0-7.6-3.284" transform="translate(11.289 0.25)" fill="#222a31"/>
  </g>
</svg>
