<svg xmlns="http://www.w3.org/2000/svg" xmlns:xlink="http://www.w3.org/1999/xlink" width="81" height="82" viewBox="0 0 81 82">
  <defs>
    <clipPath id="clip-path">
      <rect id="Rectangle_25" data-name="Rectangle 25" width="81" height="82" transform="translate(0 0.475)" fill="#ffbe34"/>
    </clipPath>
  </defs>
  <g id="Group_218" data-name="Group 218" transform="translate(-0.296 -0.617)">
    <g id="Group_22" data-name="Group 22" transform="translate(0.296 0.141)" clip-path="url(#clip-path)">
      <path id="Path_22" data-name="Path 22" d="M18.5,31.294H12.407A27.137,27.137,0,0,1,64.92,23.885,3.083,3.083,0,0,0,70.7,21.746,33.3,33.3,0,0,0,6.171,32.951,12.337,12.337,0,0,0,0,43.627V54.11A12.347,12.347,0,0,0,12.333,66.442H18.5a3.083,3.083,0,0,0,3.083-3.083V34.377A3.083,3.083,0,0,0,18.5,31.294M15.416,60.276H12.333A6.173,6.173,0,0,1,6.166,54.11V43.627a6.173,6.173,0,0,1,6.166-6.166h3.083Z" transform="translate(1.328 1.18)" fill="#ffbe34"/>
      <path id="Path_23" data-name="Path 23" d="M249.3,203h-6.166a3.083,3.083,0,0,0-3.083,3.083V238.3a3.087,3.087,0,0,1-3.083,3.083h-9.4v.1a6.166,6.166,0,1,0,0,5.971v.1h9.4a9.26,9.26,0,0,0,9.25-9.25v-.154H249.3a12.347,12.347,0,0,0,12.333-12.333V215.333A12.347,12.347,0,0,0,249.3,203m6.167,22.816a6.173,6.173,0,0,1-6.167,6.166h-3.083V209.166H249.3a6.173,6.173,0,0,1,6.167,6.166Z" transform="translate(-181.373 -170.526)" fill="#ffbe34"/>
    </g>
  </g>
</svg>
