<svg xmlns="http://www.w3.org/2000/svg" width="104.427" height="104.427" viewBox="0 0 104.427 104.427">
  <g id="boca" transform="translate(0)">
    <path id="Path_64" data-name="Path 64" d="M50.973,104.428c-13.439,0-25.875-3.988-35.017-11.229C5.518,84.931,0,72.972,0,58.615V49.68A46.213,46.213,0,0,1,16.06,14.563a1.53,1.53,0,0,1,1.993,2.321A43.157,43.157,0,0,0,3.059,49.68v8.935C3.059,72,8.176,83.134,17.855,90.8c8.6,6.815,20.365,10.568,33.118,10.568,25.043,0,50.395-14.685,50.395-42.753V49.68a43.688,43.688,0,0,0-4.42-19.106A43.135,43.135,0,0,0,84.556,15.407,114.211,114.211,0,0,0,66.674,3.98a8.629,8.629,0,0,0-8.062.163L55.905,5.635a7.606,7.606,0,0,1-7.384,0L45.816,4.145a8.632,8.632,0,0,0-8.063-.164,108.8,108.8,0,0,0-14.138,8.649,1.53,1.53,0,1,1-1.78-2.488A111.864,111.864,0,0,1,36.374,1.25a11.689,11.689,0,0,1,10.918.216L50,2.956a4.562,4.562,0,0,0,4.43,0l2.707-1.491A11.686,11.686,0,0,1,68.053,1.25,117.26,117.26,0,0,1,86.419,12.981,46.21,46.21,0,0,1,99.7,29.229a46.762,46.762,0,0,1,4.731,20.451v8.935A41.622,41.622,0,0,1,87.519,92.854,54.909,54.909,0,0,1,70.4,101.521a65.5,65.5,0,0,1-19.429,2.907Z" transform="translate(0 -0.001)"/>
    <path id="Path_65" data-name="Path 65" d="M129.34,131l-.273-6.049a1.53,1.53,0,0,0-3.056.138l.273,6.049a10.758,10.758,0,0,1-3.079,8.011c-2.569-8.563-7.418-15.091-13.815-18.526-6.585-3.534-15.107-2.464-23.381,2.936a.509.509,0,0,1-.563,0c-6.726-4.391-13.687-5.959-19.6-4.417a1.53,1.53,0,0,0,.772,2.96c5.068-1.322,11.161.105,17.156,4.019a3.6,3.6,0,0,0,.424.237V130.6a1.53,1.53,0,0,0,3.059,0V126.36a3.6,3.6,0,0,0,.424-.237c7.307-4.77,14.693-5.792,20.262-2.8,5.939,3.189,10.4,9.493,12.648,17.821a60.829,60.829,0,0,1-12.981,6.289,9.7,9.7,0,0,0-9.645-8.775H73.489a9.7,9.7,0,0,0-9.645,8.775,60.829,60.829,0,0,1-12.981-6.289c1.381-5.128,4.2-11.73,9.912-16.065a1.53,1.53,0,1,0-1.85-2.437c-5.946,4.512-9.056,11.1-10.677,16.512a10.758,10.758,0,0,1-3.079-8.011l.33-7.338a35.051,35.051,0,0,1,2.8-12.284h74.847a35.1,35.1,0,0,1,2.112,6.718,1.53,1.53,0,0,0,3-.62,38.245,38.245,0,0,0-27.565-29.18l-.741-.2a7.619,7.619,0,0,0-3.2-.16l-6.361,1.034a29.1,29.1,0,0,1-9.316,0l-6.362-1.034a7.619,7.619,0,0,0-3.2.161l-.741.2a38.243,38.243,0,0,0-28.321,35.227L42.113,131a13.8,13.8,0,0,0,6.066,12.039c10.923,7.289,23.555,10.984,37.548,10.984s26.625-3.7,37.548-10.984A13.794,13.794,0,0,0,129.34,131ZM111.731,97.094a35.243,35.243,0,0,1,9.923,11.364h-9.923ZM90.875,92.131,97.236,91.1a4.567,4.567,0,0,1,1.922.1l.74.2a35.186,35.186,0,0,1,8.774,3.677v13.39H87.256V92.51A32.263,32.263,0,0,0,90.875,92.131ZM62.781,95.057a35.231,35.231,0,0,1,8.774-3.666l.74-.2a4.573,4.573,0,0,1,1.922-.1l6.362,1.034a32.2,32.2,0,0,0,3.618.378v15.948H62.781Zm-9.554,8.277a35.267,35.267,0,0,1,6.494-6.252v11.375H49.792A35.491,35.491,0,0,1,53.227,103.335ZM84.2,150.949a67.171,67.171,0,0,1-17.337-2.565v-.043a6.636,6.636,0,0,1,6.629-6.629H84.2Zm20.4-2.565a67.17,67.17,0,0,1-17.337,2.565v-9.236H97.964a6.636,6.636,0,0,1,6.629,6.629Z" transform="translate(-33.513 -70.034)"/>
  </g>
</svg>
