<svg id="chapa" xmlns="http://www.w3.org/2000/svg" width="98.182" height="97.369" viewBox="0 0 98.182 97.369">
  <path id="Path_36" data-name="Path 36" d="M272.4,236.2a1.438,1.438,0,0,0,1.438-1.438v-1.2h1.2a1.438,1.438,0,0,0,0-2.877h-1.2v-1.2a1.438,1.438,0,0,0-2.877,0v1.2h-1.2a1.438,1.438,0,1,0,0,2.877h1.2v1.2A1.438,1.438,0,0,0,272.4,236.2Z" transform="translate(-216.865 -184.717)"/>
  <path id="Path_37" data-name="Path 37" d="M336.131,195.971a1.434,1.434,0,1,0,1.434-1.434A1.434,1.434,0,0,0,336.131,195.971Z" transform="translate(-271.671 -157.638)"/>
  <path id="Path_38" data-name="Path 38" d="M98.042,88.151,95.6,76.951a9.57,9.57,0,0,0-5.516-6.744,24.836,24.836,0,0,0,.251-3.51,6.065,6.065,0,0,0-6.058-6.058H74.572a6.049,6.049,0,0,0-4.742,2.294,6.512,6.512,0,0,0-4.962-2.294H54.179a6.515,6.515,0,0,0-5.084,2.442A6.745,6.745,0,0,0,44,60.638H40.353l.6-2.654A27.117,27.117,0,0,0,41.621,52a6.7,6.7,0,0,0-2.2-4.886l2.011-6.851L87.9,4.7a1.438,1.438,0,0,0-1.748-2.284L39.308,38.261A1.437,1.437,0,0,0,38.8,39l-1.969,6.708a8.164,8.164,0,0,0-2.165-.235l2.661-8.831L75.887,4.666a1.438,1.438,0,0,0-1.836-2.214L35.159,34.7a1.439,1.439,0,0,0-.459.692L31.189,47.047v-13.8a4.376,4.376,0,0,1,1.4-3.207L60.151,4.616A1.438,1.438,0,0,0,58.2,2.5L30.643,27.927a7.26,7.26,0,0,0-2.33,5.321V45.47H24.405A6.533,6.533,0,0,0,17.879,52a27.974,27.974,0,0,0,.668,5.986L20.7,67.521a9.227,9.227,0,0,0,5.024,6.323L24.293,80.19a5.679,5.679,0,0,1-11.078,0s-2.5-11.868-2.5-13.492A3.181,3.181,0,0,1,13.9,63.514h.22a1.438,1.438,0,1,0,0-2.877H13.9A6.057,6.057,0,0,0,7.842,66.7a24.864,24.864,0,0,0,.25,3.509A9.569,9.569,0,0,0,2.576,76.95L.137,88.152A6.081,6.081,0,0,0,5.4,95.488L32.841,98.58a145.5,145.5,0,0,0,16.25.909,145.5,145.5,0,0,0,16.25-.909l15.314-1.725A1.438,1.438,0,0,0,80.334,94L65.02,95.721a142.743,142.743,0,0,1-31.857,0L5.72,92.63a3.2,3.2,0,0,1-2.773-3.866l2.44-11.2a6.7,6.7,0,0,1,3.283-4.43l1.739,7.692a8.555,8.555,0,0,0,16.69,0l1.046-4.631,1.468,6.495a9.275,9.275,0,0,0,18.094,0l1.385-6.129,1.385,6.129a9.275,9.275,0,0,0,18.095,0L70.036,76.2l1.044,4.622a8.556,8.556,0,0,0,16.69,0l1.738-7.692a6.7,6.7,0,0,1,3.283,4.431l2.439,11.2a3.2,3.2,0,0,1-2.773,3.867l-5.422.611a1.438,1.438,0,0,0,.159,2.868,1.463,1.463,0,0,0,.163-.009l5.421-.611a6.081,6.081,0,0,0,5.262-7.337ZM23.509,66.887,21.354,57.35a25.034,25.034,0,0,1-.6-5.353,3.653,3.653,0,0,1,3.649-3.649h3.907V50.1a2.411,2.411,0,0,0,2.073,2.4,2.468,2.468,0,0,0,.364.027A2.409,2.409,0,0,0,33.063,50.8l.738-2.45h1.293A3.723,3.723,0,0,1,38.744,52a24.229,24.229,0,0,1-.6,5.352l-2.154,9.539a6.409,6.409,0,0,1-12.484,0ZM44.9,82.053a6.4,6.4,0,0,1-12.482,0l-1.663-7.359A9.4,9.4,0,0,0,38.8,67.521l.9-4.006H44a3.722,3.722,0,0,1,3.649,3.656,24.35,24.35,0,0,1-.6,5.345Zm23.02-9.538-2.155,9.538a6.4,6.4,0,0,1-12.483,0l-2.155-9.538a24.338,24.338,0,0,1-.6-5.345v-.009a3.653,3.653,0,0,1,3.649-3.646H64.868a3.653,3.653,0,0,1,3.649,3.649,24.308,24.308,0,0,1-.6,5.351Zm17.045,7.674a5.679,5.679,0,0,1-11.079,0l-1.957-8.662A21.958,21.958,0,0,1,71.39,66.7a3.186,3.186,0,0,1,3.182-3.182h9.708A3.185,3.185,0,0,1,87.461,66.7a21.943,21.943,0,0,1-.539,4.831Z" transform="translate(0.001 -2.12)"/>
</svg>
