<svg xmlns="http://www.w3.org/2000/svg" width="105.007" height="97.503" viewBox="0 0 105.007 97.503">
  <g id="chequeo-dental" transform="translate(0 0)">
    <path id="Path_54" data-name="Path 54" d="M8.78,7.437A1.774,1.774,0,0,0,6.252,8.1,17.347,17.347,0,0,0,5.033,22.449a1.875,1.875,0,0,0,3.53-1.26A13.6,13.6,0,0,1,9.519,9.943,1.784,1.784,0,0,0,8.78,7.437Z" transform="translate(3.537 8.436)"/>
    <path id="Path_55" data-name="Path 55" d="M7.644,10.519a1.824,1.824,0,0,0,1.088-.341,14.157,14.157,0,0,1,1.943-1.163c2.127-1.062.506-4.453-1.666-3.361A17.828,17.828,0,0,0,6.552,7.128,1.882,1.882,0,0,0,7.644,10.519Z" transform="translate(8.394 3.692)"/>
    <path id="Path_56" data-name="Path 56" d="M105.4,66.826a5.54,5.54,0,0,0,0-7.825,5.621,5.621,0,0,0-6.415-.915,24.253,24.253,0,0,0-14.018-6.208l5.518-15.462a25.027,25.027,0,0,0-37.692-29c-.555.375-5.526,4.273-5.792,4.081-1.921-1.373-3.837-2.757-5.8-4.081a24.761,24.761,0,0,0-29.477.949A24.545,24.545,0,0,0,3.509,36.415s1.681,4.7,1.684,4.719c.81,2.262,4.351,1.024,3.53-1.26L7.039,35.155C3.246,24.516,8.16,15.866,14.024,11.32a21.062,21.062,0,0,1,25.077-.81c9.19,6.219,18.171,14.2,29.71,15.241.169.015.341.03.51.041a1.9,1.9,0,0,0,2.007-1.733,1.877,1.877,0,0,0-1.733-2.007c-7.082-.514-13.347-4.156-19.337-8.283,1.557-1.114,3.1-2.217,4.636-3.26a21.068,21.068,0,0,1,25.077.81c5.863,4.546,10.781,13.2,6.981,23.831L80.994,51.84A24.325,24.325,0,0,0,62.065,89.2a6.883,6.883,0,0,1-2.618-.855,6.407,6.407,0,0,1-3.061-4.254L50.478,58.318a3.568,3.568,0,0,0-6.955,0L37.615,84.078a6.694,6.694,0,0,1-12.829.758l-5.717-16.01a1.876,1.876,0,1,0-3.534,1.26s5.709,15.991,5.717,16.01a10.743,10.743,0,0,0,14.731,5.762,10.405,10.405,0,0,0,5.285-6.94l5.552-25.76L52.728,84.93a10.2,10.2,0,0,0,4.839,6.662,10.683,10.683,0,0,0,7.292,1.2c.18.2.341.4.533.589a24.341,24.341,0,0,0,39.793-26.341Zm-2.652-5.177a1.784,1.784,0,0,1,0,2.521L84.452,82.461a3.874,3.874,0,0,1-2.937,1.17A3.946,3.946,0,0,1,78.649,82.3l-5.882-6.561a2.57,2.57,0,0,1,1.909-4.288h.075a2.532,2.532,0,0,1,1.842.852l4.265,4.745a2.679,2.679,0,0,0,1.909.878,2.575,2.575,0,0,0,1.951-.78l15.507-15.507a1.785,1.785,0,0,1,2.517.008ZM97.222,90.721A20.631,20.631,0,1,1,96.01,60.554L82.873,73.691l-3.5-3.89a6.321,6.321,0,0,0-9.4,8.448l5.882,6.561a7.671,7.671,0,0,0,5.556,2.57c.075,0,.146,0,.218,0A7.657,7.657,0,0,0,87.1,85.113l15.181-15.181A20.666,20.666,0,0,1,97.222,90.721Z" transform="translate(-2.007 -3.006)"/>
    <path id="Path_57" data-name="Path 57" d="M28.088,14.836a7.51,7.51,0,0,1-7.5-7.5,1.876,1.876,0,0,0-3.751,0,7.51,7.51,0,0,1-7.5,7.5,1.877,1.877,0,0,0,0,3.751,7.51,7.51,0,0,1,7.5,7.5,1.876,1.876,0,0,0,3.751,0,7.51,7.51,0,0,1,7.5-7.5A1.876,1.876,0,0,0,28.088,14.836ZM18.71,19.893a11.268,11.268,0,0,0-3.181-3.181,11.317,11.317,0,0,0,3.181-3.181,11.316,11.316,0,0,0,3.181,3.181A11.268,11.268,0,0,0,18.71,19.893Z" transform="translate(13.151 3.898)"/>
    <path id="Path_58" data-name="Path 58" d="M19.838,12.333a7.51,7.51,0,0,1-7.5,7.5,1.876,1.876,0,0,0,0,3.751,7.51,7.51,0,0,1,7.5,7.5,1.877,1.877,0,0,0,3.751,0,7.51,7.51,0,0,1,7.5-7.5,1.876,1.876,0,0,0,0-3.751,7.51,7.51,0,0,1-7.5-7.5A1.877,1.877,0,0,0,19.838,12.333ZM24.9,21.711a11.316,11.316,0,0,0-3.181,3.181,11.317,11.317,0,0,0-3.181-3.181,11.317,11.317,0,0,0,3.181-3.181A11.268,11.268,0,0,0,24.9,21.711Z" transform="translate(21.4 17.655)"/>
    <path id="Path_59" data-name="Path 59" d="M15.588,33.089a7.51,7.51,0,0,1,7.5-7.5,1.876,1.876,0,0,0,0-3.751,7.51,7.51,0,0,1-7.5-7.5,1.877,1.877,0,0,0-3.751,0,7.51,7.51,0,0,1-7.5,7.5,1.876,1.876,0,0,0,0,3.751,7.51,7.51,0,0,1,7.5,7.5C11.836,35.49,15.588,35.52,15.588,33.089Zm-5.057-9.378a11.317,11.317,0,0,0,3.181-3.181,11.317,11.317,0,0,0,3.181,3.181,11.316,11.316,0,0,0-3.181,3.181A11.268,11.268,0,0,0,10.531,23.711Z" transform="translate(-0.607 23.158)"/>
  </g>
</svg>
