<svg xmlns="http://www.w3.org/2000/svg" width="97.012" height="97.14" viewBox="0 0 97.012 97.14">
  <g id="dentista" transform="translate(0 0)">
    <g id="Group_60" data-name="Group 60" transform="translate(0 0.107)">
      <g id="Group_59" data-name="Group 59" transform="translate(0)">
        <path id="Path_60" data-name="Path 60" d="M19.709,7.243a1.617,1.617,0,0,0-1.087-1.779L4.07.614a1.617,1.617,0,0,0-1.958.809L.494,4.656a1.617,1.617,0,0,0,.711,2.173l.013.006,8.617,4.3L6.82,27.729a1.774,1.774,0,0,0-.027.2L3.559,89.379a1.617,1.617,0,0,0,.472,1.229L10.5,97.076a1.617,1.617,0,0,0,2.286,0l6.468-6.468a1.617,1.617,0,0,0,.472-1.229L16.491,28.095ZM10.027,28.206l3.207-17.685a1.617,1.617,0,0,0-.867-1.737L4.12,4.658l.267-.534L16.315,8.1,13.28,27.773a1.61,1.61,0,0,0-.018.331l.42,8H9.6ZM9.433,39.338h4.421l.17,3.234H9.263Zm-.349,6.468h5.11l.17,3.234H8.922Zm-.34,6.468h5.79l.17,3.234H8.583ZM8.41,58.742h6.468l.17,3.234h-6.8ZM8.072,65.21h7.147l.17,3.234H7.9Zm3.572,28.437L6.828,88.829l.9-17.152h7.823l.9,17.152Z" transform="translate(-0.319 -0.53)"/>
      </g>
    </g>
    <g id="Group_62" data-name="Group 62" transform="translate(22.645 0.43)">
      <g id="Group_61" data-name="Group 61">
        <path id="Path_61" data-name="Path 61" d="M128.049,9.416a1.616,1.616,0,0,0-.173-2.437l-6.468-4.851-1.94,2.587,4.977,3.732-3.533,3.533a1.617,1.617,0,0,0-.474,1.143v8.085h-1.617a1.617,1.617,0,0,0-1.617,1.617V77.8a1.617,1.617,0,0,0,1.617,1.617h1.617v5.373L116.4,86.411a6.439,6.439,0,0,0,2.395,12.414h4.882V95.591H118.79a3.2,3.2,0,0,1-1.19-6.179l5.055-2.021a1.617,1.617,0,0,0,1.017-1.5V79.421h1.617a1.617,1.617,0,0,0,1.617-1.617V22.826a1.617,1.617,0,0,0-1.617-1.617h-1.617V13.793Zm-4.377,66.771h-3.234V72.953h3.234Zm0-6.468h-3.234V30.911h3.234Zm0-42.042h-3.234V24.443h3.234Z" transform="translate(-112.355 -2.128)"/>
      </g>
    </g>
    <g id="Group_64" data-name="Group 64" transform="translate(74.4 0.104)">
      <g id="Group_63" data-name="Group 63">
        <path id="Path_62" data-name="Path 62" d="M387.8,39.325h-1.617V24.9c4.82-3.106,6.306-10.37,3.234-16.615a13.882,13.882,0,0,0-7.985-7.265,9.639,9.639,0,0,0-7.587.608c-5.3,2.865-7.026,10.488-3.832,17A13.882,13.882,0,0,0,378,25.892a10.318,10.318,0,0,0,3.151.5,9.483,9.483,0,0,0,1.8-.2V39.325h-1.617a1.617,1.617,0,0,0-1.617,1.617V95.92a1.617,1.617,0,0,0,1.617,1.617H387.8a1.617,1.617,0,0,0,1.617-1.617V40.942A1.617,1.617,0,0,0,387.8,39.325ZM378.978,22.8a10.631,10.631,0,0,1-6.065-5.606c-2.434-4.963-1.321-10.672,2.477-12.723a6,6,0,0,1,2.886-.723,7.079,7.079,0,0,1,2.177.354,10.635,10.635,0,0,1,6.065,5.6c2.434,4.963,1.321,10.672-2.477,12.723A6.331,6.331,0,0,1,378.978,22.8Zm7.205,71.5h-3.234V49.027h3.234Zm0-48.51h-3.234V42.559h3.234Z" transform="translate(-368.409 -0.514)"/>
      </g>
    </g>
    <g id="Group_66" data-name="Group 66" transform="translate(38.8 0)">
      <g id="Group_65" data-name="Group 65" transform="translate(0 0)">
        <path id="Path_63" data-name="Path 63" d="M234.214,85.833a9.7,9.7,0,0,0-8.185-8l-7.884-48.879a1.607,1.607,0,0,0-.626-1.036l-1.51-1.132,1.51-1.132a1.617,1.617,0,0,0,.647-1.4L216.548,0l-3.234.213,1.559,23.38-1.559,1.172-1.562-1.172L213.314.213,210.08,0l-1.617,24.255a1.617,1.617,0,0,0,.647,1.4l1.51,1.132-1.51,1.132a1.607,1.607,0,0,0-.626,1.036L200.6,77.834a9.7,9.7,0,1,0,10.952,11.207h3.525a9.7,9.7,0,0,0,19.137-3.209ZM202,93.893a6.468,6.468,0,1,1,6.468-6.468A6.468,6.468,0,0,1,202,93.893Zm13.082-8.085h-3.525a9.72,9.72,0,0,0-7.687-7.9l7.708-47.792,1.742-1.307,1.742,1.307,7.708,47.792A9.72,9.72,0,0,0,215.077,85.808Zm9.556,8.085a6.468,6.468,0,1,1,6.468-6.468A6.468,6.468,0,0,1,224.633,93.893Z" transform="translate(-192.28 0)"/>
      </g>
    </g>
  </g>
</svg>
