<svg xmlns="http://www.w3.org/2000/svg" width="95.711" height="97.503" viewBox="0 0 95.711 97.503">
  <g id="diente" transform="translate(0)">
    <g id="Group_40" data-name="Group 40" transform="translate(11.889 33.623)">
      <g id="Group_39" data-name="Group 39" transform="translate(0)">
        <path id="Path_44" data-name="Path 44" d="M122.208,137.783a1.673,1.673,0,0,0-1.794,1.558c-1.842,26.142-9.639,57.714-16.5,57.723-1.631-.683-3.221-9.706-4.272-15.676-2.224-12.627-4.525-25.683-11.759-25.708-6.06.025-8.42,11.83-10.92,24.328-1.228,6.137-3.283,16.408-5.043,17.047-5.25,0-14.549-24.749-16.637-58.939a1.681,1.681,0,0,0-3.355.2,232.868,232.868,0,0,0,5.846,37.808c4.067,16.344,8.695,24.288,14.146,24.288,4.185,0,5.817-7.136,8.34-19.75,1.617-8.084,4.322-21.611,7.624-21.625,4.411.015,6.841,13.8,8.448,22.928,1.957,11.109,3.249,18.447,7.529,18.447,12.973,0,19-47.989,19.909-60.839A1.681,1.681,0,0,0,122.208,137.783Z" transform="translate(-51.921 -136.538)"/>
      </g>
    </g>
    <g id="Group_42" data-name="Group 42" transform="translate(11.74)">
      <g id="Group_41" data-name="Group 41">
        <path id="Path_45" data-name="Path 45" d="M103.4,0c-3.04,0-5.92,1.364-8.7,2.683-2.563,1.215-4.983,2.36-7.266,2.36s-4.7-1.146-7.266-2.36C77.38,1.364,74.5,0,71.46,0c-11.3,0-19.582,11.729-20.144,28.522a1.681,1.681,0,0,0,1.624,1.737H53a1.68,1.68,0,0,0,1.678-1.625C55.166,13.991,62.226,3.362,71.46,3.362c2.284,0,4.7,1.146,7.266,2.36,2.784,1.319,5.664,2.683,8.7,2.683s5.92-1.364,8.7-2.683c2.563-1.215,4.983-2.36,7.266-2.36,9.165,0,16.056,10.1,16.755,24.569a1.716,1.716,0,0,0,1.762,1.6,1.682,1.682,0,0,0,1.6-1.761C122.723,11.419,114.452,0,103.4,0Z" transform="translate(-51.315)"/>
      </g>
    </g>
    <g id="Group_44" data-name="Group 44" transform="translate(26.897 18.548)">
      <g id="Group_43" data-name="Group 43">
        <path id="Path_46" data-name="Path 46" d="M153.156,75.319H114.492a1.626,1.626,0,0,0-1.626,1.626V100.48a1.626,1.626,0,0,0,1.626,1.626h38.665a1.626,1.626,0,0,0,1.626-1.626V76.945A1.626,1.626,0,0,0,153.156,75.319Zm-1.625,23.535H116.117V78.57h35.415Z" transform="translate(-112.866 -75.319)"/>
      </g>
    </g>
    <g id="Group_46" data-name="Group 46" transform="translate(0 26.953)">
      <g id="Group_45" data-name="Group 45" transform="translate(0)">
        <path id="Path_47" data-name="Path 47" d="M32.162,109.452H5.265a1.626,1.626,0,0,0-1.626,1.626V117.8a1.626,1.626,0,0,0,1.626,1.626h26.9a1.626,1.626,0,0,0,1.626-1.626v-6.724A1.626,1.626,0,0,0,32.162,109.452Zm-1.625,6.724H6.89V112.7H30.537v3.474Z" transform="translate(-3.639 -109.452)"/>
      </g>
    </g>
    <g id="Group_48" data-name="Group 48" transform="translate(65.562 26.953)">
      <g id="Group_47" data-name="Group 47">
        <path id="Path_48" data-name="Path 48" d="M298.4,109.452H271.5a1.626,1.626,0,0,0-1.626,1.626V117.8a1.626,1.626,0,0,0,1.626,1.626h26.9a1.626,1.626,0,0,0,1.626-1.626v-6.724A1.626,1.626,0,0,0,298.4,109.452Zm-1.625,6.724H273.13V112.7h23.647Z" transform="translate(-269.879 -109.452)"/>
      </g>
    </g>
    <g id="Group_50" data-name="Group 50" transform="translate(35.247 23.535)">
      <g id="Group_49" data-name="Group 49">
        <path id="Path_49" data-name="Path 49" d="M153.5,95.573h-5.043a1.681,1.681,0,0,0-1.681,1.681V110.7a1.681,1.681,0,0,0,1.681,1.681H153.5a1.681,1.681,0,0,0,1.681-1.681V97.254A1.681,1.681,0,0,0,153.5,95.573Zm-1.681,13.449h-1.681V98.935h1.681Z" transform="translate(-146.773 -95.573)"/>
      </g>
    </g>
    <g id="Group_52" data-name="Group 52" transform="translate(50.377 23.535)">
      <g id="Group_51" data-name="Group 51">
        <path id="Path_50" data-name="Path 50" d="M214.937,95.573h-5.043a1.681,1.681,0,0,0-1.681,1.681V110.7a1.681,1.681,0,0,0,1.681,1.681h5.043a1.681,1.681,0,0,0,1.681-1.681V97.254A1.681,1.681,0,0,0,214.937,95.573Zm-1.681,13.449h-1.681V98.935h1.681Z" transform="translate(-208.213 -95.573)"/>
      </g>
    </g>
    <g id="Group_54" data-name="Group 54" transform="translate(55.42 30.26)">
      <g id="Group_53" data-name="Group 53">
        <path id="Path_51" data-name="Path 51" d="M240.461,122.88H230.374a1.681,1.681,0,1,0,0,3.362h10.087a1.681,1.681,0,1,0,0-3.362Z" transform="translate(-228.693 -122.88)"/>
      </g>
    </g>
    <g id="Group_56" data-name="Group 56" transform="translate(40.29 30.26)">
      <g id="Group_55" data-name="Group 55">
        <path id="Path_52" data-name="Path 52" d="M179.021,122.88H168.934a1.681,1.681,0,0,0,0,3.362h10.087a1.681,1.681,0,0,0,0-3.362Z" transform="translate(-167.253 -122.88)"/>
      </g>
    </g>
    <g id="Group_58" data-name="Group 58" transform="translate(26.842 30.26)">
      <g id="Group_57" data-name="Group 57">
        <path id="Path_53" data-name="Path 53" d="M121.045,122.88H114.32a1.681,1.681,0,0,0,0,3.362h6.724a1.681,1.681,0,1,0,0-3.362Z" transform="translate(-112.639 -122.88)"/>
      </g>
    </g>
  </g>
</svg>
