<svg id="taladro-dental" xmlns="http://www.w3.org/2000/svg" width="68.838" height="98.167" viewBox="0 0 68.838 98.167">
  <path id="Path_34" data-name="Path 34" d="M61.138,16H59.764a33.638,33.638,0,0,0-12.549,2.421,4.908,4.908,0,0,1-3.681,0c-.7-.278-1.407-.54-2.127-.769a1.636,1.636,0,0,0-1.8.589l-3.4,4.548-3.91,1.391-4.385-1.472a1.636,1.636,0,0,0-1.047,0l-3.436,1.145L21.79,19.829a1.637,1.637,0,0,0-2.405-.769,17.686,17.686,0,0,0-8.361,13.432,18,18,0,0,0,6.217,15.15l4.745,35.193a8.982,8.982,0,0,0,9.031,8.426,8.671,8.671,0,0,0,8.573-7.133l5.481-25.343a.311.311,0,1,1,.622,0l5.481,25.327a9,9,0,0,0,5.661,6.659,9.113,9.113,0,0,0,2.945.491,8.95,8.95,0,0,0,8.95-8.311l4.761-35.307a18,18,0,0,0,6.25-15.15A18.423,18.423,0,0,0,61.138,16Zm9.817,29.45a1.636,1.636,0,0,0-.589,1.063L65.457,82.509a5.71,5.71,0,0,1-5.71,5.481,6.136,6.136,0,0,1-1.882-.311,5.677,5.677,0,0,1-3.485-4.238L48.9,58.131a3.6,3.6,0,0,0-7.035,0L36.384,83.425a5.677,5.677,0,0,1-3.469,4.238,5.857,5.857,0,0,1-1.9.327,5.759,5.759,0,0,1-5.71-5.465L20.4,46.531a1.538,1.538,0,0,0-.54-1.08,14.725,14.725,0,0,1-5.563-12.7,14.3,14.3,0,0,1,5.2-9.817l1.407,3.518a1.636,1.636,0,0,0,2.045.949l4.385-1.472L31.721,27.4a1.636,1.636,0,0,0,1.047,0l4.908-1.636a1.718,1.718,0,0,0,.785-.573l3.01-4.008.818.311a8.311,8.311,0,0,0,6.086,0,30.334,30.334,0,0,1,11.387-2.225h1.374a15.134,15.134,0,0,1,15.33,13.482,14.725,14.725,0,0,1-5.579,12.7Z" transform="translate(-10.962 6.905)"/>
  <path id="Path_35" data-name="Path 35" d="M71.628,5.272H38.905V3.636A1.636,1.636,0,0,0,37.269,2H17.636A1.636,1.636,0,0,0,16,3.636V16.725a1.636,1.636,0,0,0,1.636,1.636h4.908v4.908a4.908,4.908,0,0,0,9.817,0V18.361h4.908a1.636,1.636,0,0,0,1.636-1.636V15.089H71.628a4.908,4.908,0,0,0,0-9.817Zm-49.41,9.817,6.135-9.817h4.336l-6.135,9.817Zm2.291-9.817-5.236,8.361V5.272Zm2.945,19.633a1.636,1.636,0,0,1-1.162-.507,1.522,1.522,0,0,1-.474-1.129h3.272A1.636,1.636,0,0,1,27.453,24.905ZM29.089,20H25.817V18.361h3.272ZM30.4,15.089l5.236-8.361v8.361Zm41.23-3.272H38.905V8.544H71.628a1.636,1.636,0,1,1,0,3.272Z" transform="translate(-7.758 -2)"/>
</svg>
